<svg xmlns="http://www.w3.org/2000/svg" xmlns:xlink="http://www.w3.org/1999/xlink" viewBox="0 0 48 48"><defs><linearGradient id="6"><stop stop-color="#fff"/><stop offset="1" stop-color="#b9b9b0"/></linearGradient><linearGradient x1="-12.287" y1="21.12" x2="-21.551" y2="13.06" id="5" gradientUnits="userSpaceOnUse"><stop stop-color="#6e3d09"/><stop offset=".242" stop-color="#ea8113"/><stop offset=".621" stop-color="#5c3307"/><stop offset="1" stop-color="#e07c12"/></linearGradient><linearGradient x1="14.969" y1="19.11" x2="39.525" y2="46.986" id="9" xlink:href="#1" gradientUnits="userSpaceOnUse"/><linearGradient x1="28.514" y1="28.429" x2="17.377" y2="30.639" id="C" xlink:href="#0" gradientUnits="userSpaceOnUse"/><linearGradient x1="26.16" y1="30.543" x2="24.329" y2="30.985" id="B" xlink:href="#0" gradientUnits="userSpaceOnUse"/><linearGradient x1="3.778" y1="22.247" x2="8.441" y2="29.01" id="7" xlink:href="#1" gradientUnits="userSpaceOnUse"/><linearGradient x1="-30.835" y1="40.27" x2="-36.766" y2="41.526" id="2" xlink:href="#1" gradientUnits="userSpaceOnUse"/><linearGradient id="1"><stop stop-color="#fff"/><stop offset="1" stop-color="#fff" stop-opacity="0"/></linearGradient><linearGradient id="0"><stop/><stop offset="1" stop-opacity="0"/></linearGradient><linearGradient x1="-27.01" y1="28.2" x2="-23.298" y2="31.636" id="4" gradientUnits="userSpaceOnUse"><stop stop-color="#bdbdbd"/><stop offset=".333" stop-color="#e2e2e2"/><stop offset=".667" stop-color="#a3a3a3"/><stop offset="1" stop-color="#ddd"/></linearGradient><radialGradient cx="18.558" cy="22.3" r="19.229" id="D" gradientUnits="userSpaceOnUse" gradientTransform="matrix(1.77275 0 0 1.29668-16.34-6.616)"><stop stop-color="#857c63"/><stop offset="1" stop-color="#221f19"/></radialGradient><radialGradient cx="6.02" cy="25.27" r="4.831" id="A" gradientUnits="userSpaceOnUse" gradientTransform="matrix(.79751-.46044.53741.93083-13.912 2.587)"><stop stop-color="#5b676b"/><stop offset="1" stop-color="#141718"/></radialGradient><radialGradient cx="22.04" cy="18.478" r="6.952" id="8" xlink:href="#6" gradientUnits="userSpaceOnUse"/><radialGradient cx="13.645" cy="18.534" r="5.922" id="E" xlink:href="#6" gradientUnits="userSpaceOnUse"/><radialGradient cx="15.415" cy="35.36" r="7.579" id="3" gradientUnits="userSpaceOnUse" gradientTransform="matrix(1.57269 0 0 1.53264-55.37-21.358)"><stop stop-color="#696969"/><stop offset="1"/></radialGradient></defs><g color="#000"><g fill-rule="evenodd"><path d="m10.374 12.468c0 0 2.875 5.928 9.599 5.76 14.09-.354 16.564-7.705 16.917-8.766.354-1.061.895-.9 1.02.08 4.596 41.719-31.897 23.819-33.19 16.714 7.248-2.121 5.48-6.187 5.48-6.187l.177-7.601z" stroke-miterlimit="10" fill="url(#D)" stroke="#2e3436"/><path d="m15.738 30.07c6.739 1.348 10.171.098 12.179-1.453-.53-.685-1.436-1.436-1.436-1.436 0 0 2.353.654 3.182 1.724.826 1.067.307 1.724.091 3.088-.481-1.199-1.38-1.648-1.502-2.124-1.806 2.497-6.306 2.393-12.514.201" fill="url(#C)"/><g stroke-miterlimit="10"><path d="m36.969 11.844c-.562.927-1.406 2.033-2.688 3.094-2.632 2.179-7.05 4.162-14.281 4.344-4.224.105-6.953-1.934-8.625-3.75l-.125 4.469c.136.419.415 1.39-.063 2.719-.514 1.429-2.155 2.891-4.969 4 .25.522.495 1.044 1.25 1.781 1.028 1 2.457 2.088 4.156 3.063 3.398 1.949 7.802 3.493 11.906 3.563 4.105.069 7.857-1.235 10.438-5 2.379-3.471 3.682-9.348 3-18.281z" opacity=".185" fill="none" stroke="url(#9)"/><path d="m17.710637 21.395117a4.065865 4.065865 0 1 1 -8.13173 0 4.065865 4.065865 0 1 1 8.13173 0z" fill="url(#E)" stroke="#888a85"/><g stroke="#000"><path d="M9.611202 22.927025A6.098798 4.331031 54.19215 0 1 2.586412 27.994927 6.098798 4.331031 54.19215 1 1 9.611202 22.927025" fill="url(#A)"/><path d="m16.553152 21.997462a1.957639 1.957639 0 1 1 -3.915277 0 1.957639 1.957639 0 1 1 3.915277 0z" fill="#2e3436"/></g><path d="m2.885 21.408c-.639.479-.976 1.288-.945 2.387.03 1.099.464 2.444 1.354 3.632.89 1.188 2.059 1.983 3.105 2.321 1.046.338 1.917.243 2.556-.236.639-.479.977-1.327.952-2.431-.025-1.104-.447-2.421-1.335-3.607-.888-1.186-2.034-1.961-3.086-2.296-1.052-.335-1.961-.249-2.6.23" opacity=".281" fill="none" stroke="url(#7)"/></g><g fill="#fff"><path d="m5.833631 23.25126a1.767767 2.12132 0 1 1 -3.535534 0 1.767767 2.12132 0 1 1 3.535534 0"/><path d="m15.197843 21.09392a1.355287 1.355287 0 1 1 -2.710573 0 1.355287 1.355287 0 1 1 2.710573 0"/></g><g stroke-miterlimit="10"><path d="m26.814626 21.837053a4.772971 4.772971 0 1 1 -9.545942 0 4.772971 4.772971 0 1 1 9.545942 0z" fill="url(#8)" stroke="#888a85"/><path d="m25.455847 22.544157a2.298097 2.298097 0 1 1 -4.596194 0 2.298097 2.298097 0 1 1 4.596194 0z" fill="#2e3436" stroke="#000"/></g><path d="m23.864855 21.483496a1.59099 1.59099 0 1 1 -3.18198 0 1.59099 1.59099 0 1 1 3.18198 0" fill="#fff"/></g><g transform="matrix(-.11485-.38986.38986-.11485 24.715 29.689)"><g stroke-linecap="round" stroke-width="2.46"><path d="m-23.364 23.568l3.71 3.469c8.347-6.381 17.09-20.1 17.09-20.1 1.976-2.242-.117-3.75-2.165-2.398 0 0-12.97 10.115-18.639 19.03z" fill="url(#5)" stroke="#673907"/><path d="m-30.45 32.814l2.246 1.934 8.493-7.367.275-.706 1.094-.018c-.438-1.563-2.942-4.383-4.817-4.383l.082 1.09-.67.38-6.704 9.07z" fill="url(#4)" stroke="#888a85"/><path d="m-23.801 28.377l-4.365 5.266" fill="none" stroke-linejoin="round" stroke="#fff"/></g><path d="m-45.34 42.77c10.444 0 18.37 1.244 19.871-6.355 1.209-6.123-7.211-9.06-11.383-3.591-4.02 5.266-8.488 9.946-8.488 9.946" fill="url(#3)"/><g fill="#fff"><path transform="matrix(2.0699 0 0 2.0699-44.75-41.51)" d="m8.874999 37.75a1.25 1.25 0 1 1 -2.5 0 1.25 1.25 0 1 1 2.5 0" opacity=".528"/><path transform="matrix(1.39667 0 0 1.39667-32.06-25.877)" d="m8.874999 37.75a1.25 1.25 0 1 1 -2.5 0 1.25 1.25 0 1 1 2.5 0"/></g><path d="m-38.544 40.909c0 0 3.722.094 6.117-1.412.847-.533 1.516.65.494 1.087-2.207.945-6.61.325-6.61.325" opacity=".428" fill="url(#2)"/></g><path d="m23 31.737c1.497.143 2.85-.272 3.412-.474.098-.555.537-1.621 2.046-1.691l-.53-.928c0 0-1.967 1.348-4.066 1.746l-.862 1.348" fill-rule="evenodd" fill="url(#B)"/></g></svg>