<svg xmlns="http://www.w3.org/2000/svg" viewBox="0 0 23.418 23.418" enable-background="new 0 0 23.418 23.418"><path d="m21.17 19.1c-.619-.254-1.129-.654-1.092-1.42.036-.765-.547-1.272-.547-1.272s.51-1.675.036-3.058c-.473-1.385-2.038-3.604-3.239-5.278-1.199-1.675-.181-3.605-1.272-6.079-1.093-2.474-3.931-2.329-5.46-1.273-1.53 1.054-1.057 3.674-.985 4.914.073 1.236.033 2.117-.108 2.437-.144.32-1.128 1.494-1.784 2.476-.655.982-1.128 3.02-1.603 3.858-.473.837-.145 1.601-.145 1.601s-.328.108-.583.657c-.255.544-.764.799-1.674.979-.91.182-.91.767-.692 1.422.219.654.001 1.02-.254 1.855s1.019 1.092 2.256 1.235c1.238.147 2.621.948 3.787 1.093 1.163.146 1.528-.8 1.528-.8s1.31-.293 2.692-.327c1.384-.037 2.692.291 2.692.291s.255.582.728.836c.474.255 1.493.292 2.148-.398.656-.693 2.403-1.565 3.385-2.112.985-.548.805-1.384.186-1.637m-8.518-16.05c.624 0 1.128.619 1.128 1.382 0 .542-.253 1.01-.622 1.236-.094-.041-.193-.083-.298-.128.222-.11.38-.393.38-.723 0-.43-.266-.779-.595-.779-.325 0-.592.35-.592.779 0 .159.038.312.103.437-.194-.077-.373-.149-.513-.202-.076-.186-.119-.396-.119-.62 0-.763.504-1.382 1.128-1.382m-.081 2.914c.312.108.659.311.623.512-.037.202-.201.202-.623.46-.423.256-1.339.824-1.632.861-.295.037-.459-.128-.771-.329-.312-.202-.899-.681-.751-.936 0 0 .457-.35.658-.533.202-.184.716-.623 1.028-.566.312.053 1.156.421 1.468.531m-2.813-2.695c.492 0 .892.586.892 1.309 0 .133-.013.256-.038.375-.12.041-.242.107-.36.207-.06.049-.113.095-.164.141.078-.146.109-.354.074-.573-.066-.395-.329-.683-.59-.642-.26.045-.417.4-.351.797.067.397.329.685.589.642.015-.003.029-.007.044-.012-.127.122-.244.227-.363.316-.36-.167-.624-.664-.624-1.252 0-.723.399-1.308.891-1.308m-.961 18.391c-.116.522-.727.901-.727.901-.554.174-2.094-.494-2.792-.787-.697-.289-2.472-.379-2.705-.637-.231-.264.116-.845.205-1.396.086-.555-.174-.902-.088-1.281.088-.377 1.222-.377 1.657-.638.437-.263.524-1.019.873-1.222.349-.205.988.522 1.25.931.261.405 1.25 2.151 1.657 2.587.408.436.786 1.02.67 1.542m6.437-5.072c-.105.513-.105 2.367-.105 2.367s-1.128 1.563-2.877 1.819c-1.747.256-2.621.072-2.621.072l-.982-1.127c0 0 .763-.111.655-.875-.11-.764-2.329-1.82-2.73-2.767-.399-.945-.072-2.548.438-3.349.509-.8.835-2.546 1.345-3.13.51-.58.909-1.818.727-2.365 0 0 1.092 1.311 1.855 1.094.764-.219 2.477-1.494 2.73-1.274.254.219 2.438 5.02 2.655 6.551.219 1.528-.146 2.692-.146 2.692s-.836-.218-.944.292m5.586 3.429c-.34.312-2.232 1.076-2.799 1.672-.564.591-1.301 1.072-1.752.932-.454-.143-.849-.764-.651-1.67.197-.903.368-1.893.34-2.459s-.143-1.331 0-1.444c.141-.11.366-.055.366-.055s-.111 1.073.538 1.358c.649.28 1.583-.113 1.866-.398.284-.281.482-.705.482-.705s.282.143.254.594c-.028.452.197 1.104.623 1.329.423.223 1.073.536.733.846" fill="#010002"/></svg>