<?xml version="1.0" encoding="iso-8859-1"?>
<!-- Generator: Adobe Illustrator 18.1.1, SVG Export Plug-In . SVG Version: 6.00 Build 0)  -->
<svg version="1.1" id="Capa_1" xmlns="http://www.w3.org/2000/svg" xmlns:xlink="http://www.w3.org/1999/xlink" x="0px" y="0px"
	 viewBox="0 0 23.418 23.418" style="enable-background:new 0 0 23.418 23.418;" xml:space="preserve">
<g>
	<path style="fill:#010002;" d="M21.172,19.102c-0.619-0.254-1.129-0.654-1.092-1.42c0.036-0.765-0.547-1.272-0.547-1.272
		s0.51-1.675,0.036-3.058c-0.473-1.385-2.038-3.604-3.239-5.278c-1.199-1.675-0.181-3.605-1.272-6.079
		c-1.093-2.474-3.931-2.329-5.46-1.273c-1.53,1.054-1.057,3.674-0.985,4.914c0.073,1.236,0.033,2.117-0.108,2.437
		c-0.144,0.32-1.128,1.494-1.784,2.476c-0.655,0.982-1.128,3.021-1.603,3.858c-0.473,0.837-0.145,1.601-0.145,1.601
		s-0.328,0.108-0.583,0.657c-0.255,0.544-0.764,0.799-1.674,0.979c-0.91,0.182-0.91,0.767-0.692,1.422
		c0.219,0.654,0.001,1.02-0.254,1.855s1.019,1.092,2.256,1.235c1.238,0.147,2.621,0.948,3.787,1.093
		c1.163,0.146,1.528-0.8,1.528-0.8s1.31-0.293,2.692-0.327c1.384-0.037,2.692,0.291,2.692,0.291s0.255,0.582,0.728,0.836
		c0.474,0.255,1.493,0.292,2.148-0.398c0.656-0.693,2.403-1.565,3.385-2.112C21.971,20.191,21.791,19.355,21.172,19.102z
		 M12.654,3.051c0.624,0,1.128,0.619,1.128,1.382c0,0.542-0.253,1.009-0.622,1.236c-0.094-0.041-0.193-0.083-0.298-0.128
		c0.222-0.11,0.38-0.393,0.38-0.723c0-0.43-0.266-0.779-0.595-0.779c-0.325,0-0.592,0.35-0.592,0.779
		c0,0.159,0.038,0.312,0.103,0.437c-0.194-0.077-0.373-0.149-0.513-0.202c-0.076-0.186-0.119-0.396-0.119-0.62
		C11.526,3.67,12.03,3.051,12.654,3.051z M12.573,5.965c0.312,0.108,0.659,0.311,0.623,0.512c-0.037,0.202-0.201,0.202-0.623,0.46
		c-0.423,0.256-1.339,0.824-1.632,0.861c-0.295,0.037-0.459-0.128-0.771-0.329C9.858,7.267,9.271,6.788,9.419,6.533
		c0,0,0.457-0.35,0.658-0.533c0.202-0.184,0.716-0.623,1.028-0.566C11.417,5.487,12.261,5.855,12.573,5.965z M9.76,3.27
		c0.492,0,0.892,0.586,0.892,1.309c0,0.133-0.013,0.256-0.038,0.375c-0.12,0.041-0.242,0.107-0.36,0.207
		c-0.06,0.049-0.113,0.095-0.164,0.141c0.078-0.146,0.109-0.354,0.074-0.573c-0.066-0.395-0.329-0.683-0.59-0.642
		c-0.26,0.045-0.417,0.4-0.351,0.797C9.29,5.281,9.552,5.569,9.812,5.526c0.015-0.003,0.029-0.007,0.044-0.012
		C9.729,5.636,9.612,5.741,9.493,5.83c-0.36-0.167-0.624-0.664-0.624-1.252C8.869,3.855,9.268,3.27,9.76,3.27z M8.799,21.661
		c-0.116,0.522-0.727,0.901-0.727,0.901c-0.554,0.174-2.094-0.494-2.792-0.787c-0.697-0.289-2.472-0.379-2.705-0.637
		c-0.231-0.264,0.116-0.845,0.205-1.396c0.086-0.555-0.174-0.902-0.088-1.281c0.088-0.377,1.222-0.377,1.657-0.638
		c0.437-0.263,0.524-1.019,0.873-1.222c0.349-0.205,0.988,0.522,1.25,0.931c0.261,0.405,1.25,2.151,1.657,2.587
		C8.537,20.555,8.915,21.139,8.799,21.661z M15.236,16.589c-0.105,0.513-0.105,2.367-0.105,2.367s-1.128,1.563-2.877,1.819
		c-1.747,0.256-2.621,0.072-2.621,0.072L8.651,19.72c0,0,0.763-0.111,0.655-0.875c-0.11-0.764-2.329-1.82-2.73-2.767
		c-0.399-0.945-0.072-2.548,0.438-3.349c0.509-0.8,0.835-2.546,1.345-3.13c0.51-0.58,0.909-1.818,0.727-2.365
		c0,0,1.092,1.311,1.855,1.094c0.764-0.219,2.477-1.494,2.73-1.274c0.254,0.219,2.438,5.022,2.655,6.551
		c0.219,1.528-0.146,2.692-0.146,2.692S15.344,16.079,15.236,16.589z M20.822,20.018c-0.34,0.312-2.232,1.076-2.799,1.672
		c-0.564,0.591-1.301,1.072-1.752,0.932c-0.454-0.143-0.849-0.764-0.651-1.67c0.197-0.903,0.368-1.893,0.34-2.459
		s-0.143-1.331,0-1.444c0.141-0.11,0.366-0.055,0.366-0.055s-0.111,1.073,0.538,1.358c0.649,0.28,1.583-0.113,1.866-0.398
		c0.284-0.281,0.482-0.705,0.482-0.705s0.282,0.143,0.254,0.594c-0.028,0.452,0.197,1.104,0.623,1.329
		C20.512,19.395,21.162,19.708,20.822,20.018z"/>
</g>
<g>
</g>
<g>
</g>
<g>
</g>
<g>
</g>
<g>
</g>
<g>
</g>
<g>
</g>
<g>
</g>
<g>
</g>
<g>
</g>
<g>
</g>
<g>
</g>
<g>
</g>
<g>
</g>
<g>
</g>
</svg>
