<?xml version="1.0" encoding="UTF-8" standalone="no"?>
<svg
   xmlns:dc="http://purl.org/dc/elements/1.1/"
   xmlns:cc="http://creativecommons.org/ns#"
   xmlns:rdf="http://www.w3.org/1999/02/22-rdf-syntax-ns#"
   xmlns:svg="http://www.w3.org/2000/svg"
   xmlns="http://www.w3.org/2000/svg"
   xmlns:sodipodi="http://sodipodi.sourceforge.net/DTD/sodipodi-0.dtd"
   xmlns:inkscape="http://www.inkscape.org/namespaces/inkscape"
   viewBox="0 0 70.866142 70.866141"
   id="svg2"
   version="1.1"
   inkscape:version="0.91 r13725"
   sodipodi:docname="inkscape_icon.svg">
  <metadata
     id="metadata10">
    <rdf:RDF>
      <cc:Work
         rdf:about="">
        <dc:format>image/svg+xml</dc:format>
        <dc:type
           rdf:resource="http://purl.org/dc/dcmitype/StillImage" />
      </cc:Work>
    </rdf:RDF>
  </metadata>
  <defs
     id="defs8" />
  <sodipodi:namedview
     pagecolor="#ffffff"
     bordercolor="#666666"
     borderopacity="1"
     objecttolerance="10"
     gridtolerance="10"
     guidetolerance="10"
     inkscape:pageopacity="0"
     inkscape:pageshadow="2"
     inkscape:window-width="1680"
     inkscape:window-height="1001"
     id="namedview6"
     showgrid="false"
     inkscape:zoom="3.3302222"
     inkscape:cx="-4.504204"
     inkscape:cy="35.433071"
     inkscape:window-x="0"
     inkscape:window-y="0"
     inkscape:window-maximized="1"
     inkscape:current-layer="svg2" />
  <path
     style="fill:#e7e3db"
     d="m 44.000708,5.6831524 c 1.546784,-0.00397 2.721496,0.06591 0.356057,0.060546 -6.543945,0.012593 -13.090052,0.054439 -19.63272,-0.030051 6.424754,-0.092879 12.851473,-0.070552 19.276663,-0.030495 z m -0.281054,0.562119 c 1.496516,-0.00398 2.632988,0.066119 0.344478,0.06074 -6.331083,0.011713 -12.664506,0.055502 -18.994259,-0.030147 6.215762,-0.093176 12.433566,-0.070778 18.649781,-0.030593 z M 14.532011,66.745959 c 10.368529,0.597186 20.773801,0.383453 31.158058,0.362661 3.821455,-0.183614 7.740992,0.233685 11.479717,-0.667019 4.889994,-1.684215 8.95359,-6.478254 8.895401,-11.794244 C 66.424646,43.314875 66.254826,31.968719 66.175235,20.632025 66.199002,16.991494 65.878554,12.94609 63.034706,10.30236 60.726691,7.4833831 57.37736,5.4287901 53.643297,5.5374506 42.267911,5.2156286 30.880384,5.3444528 19.50163,5.438658 15.961283,5.3871849 12.177324,5.881248 9.4956938,8.4327568 6.4198025,10.848971 4.454566,14.577354 4.6163485,18.528437 4.3608823,29.994995 4.4001788,41.471531 4.5673144,52.939464 c -0.089002,3.568517 0.7500373,7.28994 3.4274421,9.839059 1.7728648,1.860059 4.0114205,3.379179 6.5372545,3.967436 z"
     id="path3390"
     inkscape:connector-curvature="0" />
  <path
     style="fill:#e1ddd5"
     d="m 28.435917,21.358796 c -1.336548,1.309253 -2.673097,2.618506 -4.009645,3.927759 -6.380276,0 -12.760552,0 -19.1408281,0 C 5.3602344,20.423054 4.7639733,15.021052 8.1128548,11.016742 11.026837,7.1974732 16.047256,5.5730591 20.697873,5.712602 31.650217,5.6221263 42.615578,5.4671024 53.560377,5.8605904 c 3.41609,0.8152927 6.908854,2.2008675 9.04333,5.1561516 3.348058,4.004298 2.754388,9.406335 2.82741,14.269813 -6.380275,0 -12.760551,0 -19.140826,0 -3.021452,-2.797808 -5.691102,-6.050644 -9.181133,-8.279762 -3.111991,-1.609666 -5.711393,1.639263 -7.787429,3.49008 -0.29652,0.286021 -0.591498,0.573635 -0.885812,0.861923 z m 10.776294,3.36565 c 1.463533,1.156253 -0.907513,0.561442 -1.666816,0.702636 -2.205763,0 -4.411526,0 -6.617289,0 1.42878,-1.438846 2.522827,-3.3534 4.391976,-4.234705 1.640878,0.510687 2.678344,2.364625 3.892129,3.532069 z m 26.708054,-4.005028 c 0.139693,1.082908 -0.05837,5.736149 -0.09775,2.426463 0.01719,-0.222957 -0.04827,-3.635394 0.09775,-2.426463 z m -60.9888379,0 c 0.1396932,1.082907 -0.058367,5.736149 -0.097748,2.426463 0.017189,-0.222957 -0.048269,-3.635394 0.097748,-2.426463 z m 9.9023109,46.045534 c 10.527203,0.573175 21.088681,0.3615 31.630298,0.327471 3.677648,-0.236224 7.515003,0.347782 11.058977,-0.841209 4.916821,-1.975189 8.80754,-6.987037 8.549335,-12.425406 C 66.39745,41.460816 66.496149,29.074307 65.955888,16.715106 64.953771,10.405978 58.849699,5.135786 52.379772,5.5078508 40.201233,5.210022 28.00242,5.1060672 15.830419,5.6490617 9.3432411,6.6649747 4.1280974,13.024226 4.5474945,19.619219 c -0.1276541,11.539478 -0.1746796,23.085357 0.065952,34.62325 0.00608,5.819217 4.6281021,11.210628 10.2202919,12.522483 z"
     id="path3388"
     inkscape:connector-curvature="0" />
  <path
     style="fill:#d5d2c8"
     d="M 15.840925,5.5757258 C 28.762308,5.8593859 41.700945,5.7973037 54.626573,5.6113895 52.718733,5.3918865 48.696669,5.4808396 45.944421,5.4283998 35.910752,5.4192493 25.870935,5.3080142 15.840925,5.5757258 Z M 7.5338806,10.846659 c 0.7365196,0.221604 1.0514239,-1.6038719 0,0 z M 62.734396,10.601455 c 2.009063,1.879776 -1.200342,-1.4848087 -0.19606,-0.231568 l 0.113115,0.133601 0.08294,0.09797 z M 6.690717,12.076991 c -0.8857744,2.03505 1.2876462,-1.843225 0,0 z m 58.072485,2.097044 c 1.143085,1.39663 -0.763948,-2.101368 0,0 z M 30.234971,29.572636 c -0.440001,2.428623 -4.828148,-1.163614 -1.668558,-2.15825 2.246144,-2.117624 4.064799,-4.938441 6.837697,-6.35054 2.648811,1.375889 4.459998,4.037244 6.446488,6.234281 1.70534,2.891165 -2.743413,-0.543738 -3.811553,-0.828481 -2.545723,-2.449706 -3.84791,4.886988 -5.401549,0.379403 -1.776478,-2.343235 -1.928672,1.792317 -2.402525,2.723587 z m -4.92439,18.012146 c -0.230007,0.46125 -1.440524,-0.24851 0,0 z M 14.872876,66.719429 c 8.995823,0.655297 18.041118,0.423586 27.058681,0.450782 4.751962,-0.152177 9.569862,0.149315 14.271467,-0.571555 6.075537,-1.765947 10.484745,-7.965355 9.971928,-14.306455 0.104745,-11.56866 0.113428,-23.143807 -0.172223,-34.709302 0.286886,-1.259552 -1.366507,-3.971374 -0.500158,-1.084946 0.718263,4.834103 0.300103,9.77809 0.417948,14.656102 -0.02834,2.920902 0.0024,5.843929 -0.07869,8.763438 -0.143162,-4.172315 -0.18666,-8.348858 -0.284027,-12.523054 -0.04223,4.82477 -0.08445,9.649539 -0.12668,14.474309 -5.515793,0.120269 -11.07539,-0.318477 -16.550421,0.468648 -1.108611,0.318509 -5.546586,1.034758 -2.278348,0.193954 3.016021,-0.992691 7.637905,-0.791064 8.961038,-4.244729 0.547155,-3.385483 -2.733625,-5.337384 -4.592197,-7.625672 -4.494585,-4.575911 -8.856711,-9.32471 -13.720132,-13.50887 -3.369153,-1.432342 -5.778666,1.459333 -7.839379,3.626825 -4.682252,4.772835 -9.485444,9.454539 -13.826804,14.541394 -2.127782,3.664053 2.172503,4.95732 5.018043,4.696854 1.646783,-0.508764 6.091783,1.924139 2.074479,1.783082 -5.796061,0.126184 -11.594699,0.04603 -17.3919514,0.06854 -0.042225,-4.82477 -0.084451,-9.649539 -0.126677,-14.474309 -0.097623,4.207106 -0.1431716,8.416397 -0.2852587,12.621737 -0.03178,-7.388387 -0.3186183,-14.79539 0.1312591,-22.175 0.1465831,-1.641128 1.2660233,-5.002001 -0.1771797,-1.89162 -0.5490659,1.275311 -0.1108504,2.788577 -0.2616278,4.159885 0.00704,11.663506 -0.2844448,23.333039 0.089511,34.991698 0.6611108,5.440768 4.943216,10.209103 10.2174041,11.618265 z"
     id="path3386"
     inkscape:connector-curvature="0" />
  <path
     style="fill:#c6c3bc"
     d="M 15.840925,5.5757258 C 28.762308,5.8593859 41.700945,5.7973037 54.626573,5.6113895 52.718733,5.3918865 48.696669,5.4808396 45.944421,5.4283998 35.910752,5.4192493 25.870935,5.3080142 15.840925,5.5757258 Z M 51.26818,46.835392 c 3.686257,2.316783 5.815927,-3.864848 1.092873,-2.969173 -1.994455,-0.08318 -4.174235,2.112955 -1.092873,2.969173 z M 20.673181,51.68317 c 2.297021,1.629218 7.620678,-2.387483 2.877692,-2.932829 -1.472603,-0.365129 -4.511044,1.28735 -2.877692,2.932829 z M 30.67318,28.568499 c 0.317916,2.896513 -2.894909,2.18149 -3.441271,0.371116 2.114467,-2.755168 4.571551,-5.28124 7.175019,-7.577319 2.711571,-1.171424 4.315577,2.803635 6.203028,4.211865 1.258977,0.852337 3.244733,4.291856 0.303551,2.590566 -2.548411,-1.945969 -5.21498,-2.672883 -6.962874,0.489861 -1.024221,-1.168778 -2.720571,-3.737642 -3.163206,-0.526607 l -0.114247,0.440518 0,0 z m 3.846384,28.174406 c 2.425426,0.648948 8.118227,-1.258833 5.241877,-4.364263 1.426327,-1.874131 5.443519,-1.010032 7.04027,-3.325134 2.354667,-2.338505 -5.621077,-5.521339 -0.495868,-6.615154 3.001259,-0.998563 6.702977,-1.077314 8.915985,-3.587085 1.149874,-3.022323 -2.082242,-5.330535 -3.759261,-7.408141 -4.580605,-4.696709 -9.048919,-9.52976 -13.942698,-13.902284 -2.77986,-2.132584 -5.527236,0.945614 -7.38576,2.805275 -4.744926,4.755906 -9.510045,9.498486 -14.083514,14.419683 -2.397028,3.07366 0.98993,5.430671 3.990213,4.970706 1.787083,-0.441373 7.097988,1.436974 3.656481,3.034631 -3.258124,-0.214268 -5.045709,4.440252 -0.81201,4.29187 1.889156,0.667103 7.035688,-0.190084 6.630136,2.337351 -3.037596,1.017488 -1.745211,4.113421 1.020309,4.152184 1.831313,0.426689 2.082524,2.876414 3.98384,3.190361 z m 9.621672,9.929081 c 1.571919,-0.004 2.765749,0.06581 0.361846,0.06045 -6.650361,0.01257 -13.302843,0.05436 -19.951952,-0.03001 6.52925,-0.09274 13.060428,-0.07044 19.590106,-0.03045 z m -28.035191,0.302429 c 13.020383,0.199467 26.044539,0.04446 39.066581,0.04874 3.205493,-1.24029 6.389818,-2.903248 8.265236,-5.917472 1.55655,-2.321475 2.782159,-4.878404 2.614051,-7.709273 0.173051,-12.113409 0.307893,-24.236114 0.02083,-36.347261 -0.425915,12.33264 0.172448,24.703156 -0.309812,37.039319 -0.80131,3.487992 -2.279899,6.996877 -5.269033,9.173317 -3.063109,2.60668 -7.174009,3.08461 -11.041631,2.953511 C 38.479228,66.319601 27.492605,66.477863 16.527626,66.026856 10.680417,65.148465 5.6392675,60.17899 5.199022,54.198361 4.4562014,51.302263 4.9335386,48.167523 4.7647994,45.176362 4.6927118,35.802546 4.9684869,26.412501 4.6438219,17.049149 c -0.2798425,12.392739 -0.1724131,24.798125 0.049392,37.19235 0.039092,2.871256 1.5451,5.509254 3.2876207,7.784264 2.0586355,2.495292 4.9825855,4.222012 8.1252105,4.948652 z"
     id="path3384"
     inkscape:connector-curvature="0" />
  <path
     style="fill:#9e9c99"
     d="m 26.153745,5.4020806 c -1.770779,-0.00298 -2.738879,0.064274 -0.379215,0.060192 6.969601,0.012468 13.941241,0.054678 20.909645,-0.029875 -6.84279,-0.092336 -13.687239,-0.070138 -20.53043,-0.030317 z m 28.544602,0.2997181 c -0.257343,0.5516362 1.244559,-0.2212846 0,0 z m -39.066582,-3e-7 c -0.257347,0.5516366 1.244562,-0.2212847 0,0 z M 65.734367,16.69097 c 0.228466,1.479337 0.265265,-1.188084 0,0 z m -60.9888428,0 c 0.2284571,1.479332 0.2652849,-1.18808 0,0 z M 51.097329,46.560574 c 2.128341,1.695613 6.231108,-1.434867 2.538292,-2.540898 -1.423717,-0.505737 -5.451011,1.232843 -2.538292,2.540898 z m -30.342691,4.737018 c 1.657524,1.568807 7.151676,-1.445824 2.989751,-2.285003 -1.127343,-0.361854 -3.914215,0.748452 -2.989751,2.285003 z m 45.371165,-15.04991 c 0.0138,3.775058 -0.02488,7.552105 0.04776,11.325894 0.08939,-7.549957 0.08939,-15.101831 0,-22.651788 -0.07265,3.773552 -0.03396,7.551057 -0.04776,11.325894 z m -61.5509459,0 c 0.013805,3.775058 -0.024884,7.552105 0.047762,11.325894 0.089401,-7.549957 0.0894,-15.101831 4e-7,-22.651788 -0.072646,3.773552 -0.033958,7.551057 -0.047763,11.325894 z M 65.756548,55.640446 c 0.186385,1.437984 0.186386,-1.437987 0,0 z m -60.9888358,0 c 0.1863846,1.437984 0.1863839,-1.437987 0,0 z M 30.183096,30.868288 c -1.960383,0.408307 -4.801439,-2.409164 -1.790518,-3.761151 2.314721,-2.067036 4.098211,-5.013852 6.987431,-6.263049 2.772477,0.884841 4.371327,3.844412 6.455602,5.772368 1.972256,1.550552 0.314375,3.180763 -1.412172,1.505062 -2.091478,-1.690333 -4.798739,-2.350899 -5.989117,0.686854 -1.096381,1.177863 -2.508677,-4.153479 -3.368976,-0.885877 -0.302768,0.978161 -0.480528,2.0001 -0.88225,2.945793 z m 4.05575,25.535603 c 2.275512,0.797573 8.095614,-0.811818 5.193541,-3.824431 0.967258,-2.455358 5.636707,-1.314075 7.239823,-3.74913 1.698086,-2.284706 -5.474006,-5.320362 -0.688033,-6.571186 2.999016,-0.997441 6.721485,-0.937268 8.976037,-3.413976 1.346859,-3.234671 -2.358461,-5.473937 -4.091246,-7.69473 -4.460074,-4.621959 -8.807837,-9.387565 -13.627692,-13.636522 -1.388534,-0.323072 -3.538124,-0.778356 -4.603324,0.443962 -5.367405,5.59409 -11.012941,10.935812 -16.078442,16.808314 -3.420572,3.522325 1.848514,5.324423 4.798112,4.931511 2.36123,-0.554724 5.905577,2.882872 1.971272,3.460992 -3.61844,-0.101155 -3.377564,4.267217 0.166938,3.799554 1.817413,0.546383 7.306253,-0.220396 6.240913,2.551598 -3.239955,1.200767 -1.15198,3.961273 1.459904,4.00258 1.48303,0.454581 1.489645,2.505694 3.042197,2.891464 z M 15.965517,66.915894 c 12.653574,0.289657 25.318644,0.235523 37.974722,0.06272 1.236784,-0.176438 -3.061537,-0.134202 -3.925962,-0.172584 -11.347725,-0.0585 -22.70716,-0.174649 -34.04876,0.109863 z"
     id="path3382"
     inkscape:connector-curvature="0" />
  <path
     style="fill:#5d5c5a"
     d="m 51.167599,46.227688 c 1.593417,1.480999 5.521715,-0.666083 2.552066,-1.826176 -0.934465,-0.430501 -5.219093,0.688961 -2.552066,1.826176 z m -30.317353,4.788817 c 1.644355,1.654917 6.626034,-1.745127 2.196071,-1.716964 -0.869137,0.08938 -2.506992,0.547928 -2.196071,1.716964 z M 30.99649,29.303588 c 0.423742,4.165698 -6.711659,0.212837 -3.45599,-1.574891 2.276598,-2.462772 4.496772,-5.04373 7.142702,-7.111573 3.111899,-0.04775 4.736455,3.478892 6.877765,5.319819 1.880501,1.053459 1.948889,4.677223 -0.795231,2.6654 -2.212511,-1.584872 -4.989508,-2.781969 -6.311383,0.487231 -1.271692,1.282452 -2.758466,-4.170056 -3.222997,-0.584144 l -0.117107,0.388802 -0.117759,0.409356 0,0 z m 3.799682,26.961613 c 2.001475,0.298186 7.026572,-0.839103 4.392057,-3.528319 0.263986,-2.560315 4.704992,-1.885934 6.534375,-3.298848 3.673076,-2.083308 -4.807314,-5.245741 -0.665159,-7.149205 3.098823,-1.187906 6.858727,-1.053308 9.437159,-3.36203 1.639174,-3.17144 -2.107235,-5.574252 -3.875512,-7.725527 -4.387138,-4.517779 -8.696461,-9.130225 -13.338786,-13.386112 -3.15749,-1.594222 -5.473294,1.396671 -7.435683,3.385985 -4.522715,4.647696 -9.261936,9.120763 -13.405064,14.115499 -2.564343,3.799508 3.008362,4.05885 5.526385,4.173417 2.714518,-0.468462 5.206429,3.504075 1.39326,3.924512 -2.370696,-0.0107 -3.647981,3.188072 -0.517575,3.146805 2.087026,0.793828 8.056501,-0.388002 7.14861,2.935746 -1.879204,1.056114 -2.373147,3.179339 0.29744,3.41184 2.450494,0.141969 2.34331,2.883132 4.508493,3.356237 z"
     id="path3380"
     inkscape:connector-curvature="0" />
  <path
     style="fill:#2c2c2c"
     d="m 51.743545,46.054794 c 1.960457,1.458542 4.050464,-1.496692 1.031931,-1.352229 -1.031669,-0.08393 -3.487571,0.712262 -1.031931,1.352229 z m -30.555304,4.845287 c 1.508111,1.144593 5.210174,-1.615907 1.563107,-1.184696 -0.531349,0.135922 -1.736119,0.435273 -1.563107,1.184696 z M 31.285847,29.490714 c 0.338691,4.063615 -5.306492,1.173924 -4.900491,-0.880378 2.448977,-2.888286 5.071128,-5.682535 7.975938,-8.1113 3.091502,-1.051922 4.758664,2.921328 6.84635,4.545421 2.355182,1.11221 3.106472,6.233081 -0.546874,3.856145 -1.967763,-1.071314 -4.43414,-3.103643 -5.602472,0.02393 -1.607899,3.036279 -3.357766,-3.837108 -3.674006,0.173316 l -0.09844,0.392864 0,0 z m 2.456373,25.912709 c 2.149841,1.420861 7.874332,-0.07295 5.01638,-3.090501 1.344603,-2.794776 5.916281,-1.483388 7.517838,-4.093926 -0.713448,-2.011633 -5.236879,-5.595435 -0.552067,-6.49753 2.838638,-1.020916 6.292667,-0.932494 8.586702,-3.077577 1.272545,-3.07584 -2.360543,-5.154543 -3.969439,-7.240316 -4.418559,-4.44066 -8.564143,-9.181384 -13.269578,-13.321059 -3.260271,-1.594743 -5.464549,1.884523 -7.511954,3.803473 -4.354225,4.485612 -8.801896,8.895961 -12.920875,13.599113 -2.149517,3.788834 3.374076,3.273922 5.663246,3.747532 3.283861,-0.413626 4.999667,4.329044 0.999021,4.612 -3.04387,0.0936 -2.376226,2.736527 0.267923,2.456935 2.179843,0.505897 8.192473,-0.05642 6.790773,3.460326 -2.704693,1.378314 -1.195688,2.970876 1.09486,3.156667 1.25458,0.301849 1.466304,1.687315 2.28717,2.484863 z"
     id="path3378"
     inkscape:connector-curvature="0" />
</svg>
