<?xml version="1.0" encoding="UTF-8" standalone="no"?>
<svg
   xmlns:dc="http://purl.org/dc/elements/1.1/"
   xmlns:cc="http://creativecommons.org/ns#"
   xmlns:rdf="http://www.w3.org/1999/02/22-rdf-syntax-ns#"
   xmlns:svg="http://www.w3.org/2000/svg"
   xmlns="http://www.w3.org/2000/svg"
   xmlns:sodipodi="http://sodipodi.sourceforge.net/DTD/sodipodi-0.dtd"
   xmlns:inkscape="http://www.inkscape.org/namespaces/inkscape"
   viewBox="0 0 106.29921 106.29921"
   id="svg2"
   version="1.1"
   inkscape:version="0.91 r13725"
   sodipodi:docname="krita_icon.svg">
  <metadata
     id="metadata10">
    <rdf:RDF>
      <cc:Work
         rdf:about="">
        <dc:format>image/svg+xml</dc:format>
        <dc:type
           rdf:resource="http://purl.org/dc/dcmitype/StillImage" />
      </cc:Work>
    </rdf:RDF>
  </metadata>
  <defs
     id="defs8" />
  <sodipodi:namedview
     pagecolor="#ffffff"
     bordercolor="#666666"
     borderopacity="1"
     objecttolerance="10"
     gridtolerance="10"
     guidetolerance="10"
     inkscape:pageopacity="0"
     inkscape:pageshadow="2"
     inkscape:window-width="1680"
     inkscape:window-height="1001"
     id="namedview6"
     showgrid="false"
     inkscape:zoom="2.2201482"
     inkscape:cx="-6.7563057"
     inkscape:cy="53.149605"
     inkscape:window-x="0"
     inkscape:window-y="0"
     inkscape:window-maximized="1"
     inkscape:current-layer="svg2" />
  <path
     inkscape:connector-curvature="0"
     id="path3352"
     d="M 21.098586,102.76939 C 13.505689,101.10796 7.0520895,94.311969 5.713287,86.567835 5.3431869,84.427038 5.2235744,78.523955 5.318976,67.107878 L 5.4559182,50.720891 8.02472,52.072285 c 1.412841,0.743267 2.848989,1.351395 3.19144,1.351395 0.342451,0 1.404979,0.493869 2.361173,1.097488 0.956194,0.603619 2.028889,1.097489 2.383767,1.097489 0.354877,0 1.791025,0.690908 3.19144,1.535356 1.400415,0.844447 2.875455,1.535865 3.277868,1.536484 0.402412,4.39e-4 0.797508,0.149289 0.877991,0.330374 0.163563,0.368019 2.032561,1.445687 5.625344,3.243584 l 2.406043,1.204028 2.14347,-2.404918 c 2.428953,-2.725226 4.819349,-4.127922 7.034566,-4.127922 1.838927,0 5.352066,2.695292 8.416412,6.457096 3.901864,4.789945 4.326008,6.695615 2.587165,11.62402 l -0.622755,1.765077 2.300327,2.039529 c 1.265181,1.121739 3.683638,3.331058 5.374345,4.909598 1.690708,1.578535 3.469113,3.158919 3.952008,3.511963 0.482895,0.35304 1.147973,1.234539 1.477953,1.958881 0.741643,1.627993 0.985654,2.107815 2.956028,5.812699 l 1.578048,2.96721 -0.314035,-5.733592 c -0.268037,-4.893816 -0.213742,-5.833885 0.370718,-6.418346 0.376619,-0.376614 1.366321,-2.375 2.199341,-4.44086 0.83302,-2.06586 1.741069,-4.017528 2.017887,-4.337042 0.276817,-0.319514 1.137718,-1.595889 1.913111,-2.836389 2.644403,-4.230595 4.254814,-6.523328 5.576559,-7.939325 0.726379,-0.778176 1.320691,-1.57796 1.320691,-1.777295 0,-0.36265 1.869634,-2.475025 5.590203,-6.31602 1.835524,-1.894929 7.522143,-5.195858 8.957873,-5.199805 0.328496,-8.78e-4 1.273579,-0.413942 2.100185,-0.917869 3.346454,-2.040105 3.108384,-3.237069 3.091114,15.541316 -0.0111,12.089197 -0.17506,17.501146 -0.58767,19.400341 -1.693335,7.794228 -8.238111,14.08727 -16.464174,15.8309 -4.217487,0.89395 -59.083871,0.83463 -63.21057,-0.0683 z M 40.346092,66.216779 c 0.244234,-0.879295 0.438059,-2.092586 0.430722,-2.696204 l -0.01334,-1.097489 -1.071683,1.31163 c -1.638931,2.005885 -2.191367,3.599271 -1.525892,4.401118 0.750318,0.904081 1.604996,0.151774 2.180192,-1.919055 z m 9.553359,-7.419927 c -3.07584,-3.082683 -5.592437,-5.854052 -5.592437,-6.158601 0,-0.304549 1.437725,-1.208919 3.194945,-2.009708 2.953348,-1.345884 5.985103,-3.535986 5.527846,-3.993244 -0.107102,-0.107102 -4.288007,-0.2251 -9.290898,-0.262217 -5.002893,-0.03712 -9.186377,-0.213446 -9.296632,-0.391843 -0.110256,-0.178397 -2.528784,-0.37232 -5.374507,-0.430939 -2.845723,-0.05862 -7.149522,-0.292965 -9.563996,-0.520768 -2.414475,-0.227804 -6.365434,-0.55944 -8.779909,-0.73697 C 8.3093885,44.115032 6.0869742,43.813447 5.7851647,43.622374 4.9559838,43.097426 5.0443489,27.734142 5.8973583,24.116227 7.306027,18.141564 11.426997,12.595362 16.486371,9.8650179 21.090423,7.3803933 21.681585,7.3404277 53.525918,7.360954 c 26.143126,0.016851 29.495049,0.097614 32.082308,0.7730036 7.487528,1.9545764 13.232982,8.0328084 15.107254,15.9822694 0.44847,1.902114 0.64996,5.273301 0.65445,10.94981 0.006,7.438675 -0.065,8.221835 -0.76175,8.419319 -0.42253,0.119756 -3.040045,0.353094 -5.816692,0.518529 -2.776646,0.165435 -5.344769,0.454614 -5.70694,0.64262 -0.362171,0.188007 -4.016808,0.472593 -8.121416,0.632413 -4.104607,0.159821 -7.98505,0.389671 -8.623205,0.510779 -0.737709,0.14 -2.902677,2.009917 -5.944463,5.134326 -5.417217,5.564363 -6.827406,7.309923 -8.69909,10.767916 -0.724342,1.338247 -1.516672,2.495413 -1.760736,2.571486 -0.244059,0.07607 -2.960343,-2.383886 -6.036187,-5.466573 z"
     style="fill:#f1a1f3" />
  <path
     inkscape:connector-curvature="0"
     id="path3350"
     d="M 21.098586,102.76939 C 13.505689,101.10796 7.0520895,94.311969 5.713287,86.567835 5.3431869,84.427038 5.2235744,78.523955 5.318976,67.107878 L 5.4559182,50.720891 8.02472,52.072285 c 1.412841,0.743267 2.848989,1.351395 3.19144,1.351395 0.342451,0 1.404979,0.493869 2.361173,1.097488 0.956194,0.603619 2.028889,1.097489 2.383767,1.097489 0.354877,0 1.791025,0.690908 3.19144,1.535356 1.400415,0.844447 2.875455,1.535865 3.277868,1.536484 0.402412,4.39e-4 0.797508,0.149289 0.877991,0.330374 0.163563,0.368019 2.032561,1.445687 5.625344,3.243584 l 2.406043,1.204028 2.14347,-2.404918 c 2.428953,-2.725226 4.819349,-4.127922 7.034566,-4.127922 1.838927,0 5.352066,2.695292 8.416412,6.457096 3.901864,4.789945 4.326008,6.695615 2.587165,11.62402 l -0.622755,1.765077 2.300327,2.039529 c 1.265181,1.121739 3.683638,3.331058 5.374345,4.909598 1.690708,1.578535 3.469113,3.158919 3.952008,3.511963 0.482895,0.35304 1.147973,1.234539 1.477953,1.958881 0.741643,1.627993 0.985654,2.107815 2.956028,5.812699 l 1.578048,2.96721 -0.314035,-5.733592 c -0.268037,-4.893816 -0.213742,-5.833885 0.370718,-6.418346 0.376619,-0.376614 1.366321,-2.375 2.199341,-4.44086 0.83302,-2.06586 1.741069,-4.017528 2.017887,-4.337042 0.276817,-0.319514 1.137718,-1.595889 1.913111,-2.836389 2.644403,-4.230595 4.254814,-6.523328 5.576559,-7.939325 0.726379,-0.778176 1.320691,-1.57796 1.320691,-1.777295 0,-0.36265 1.869634,-2.475025 5.590203,-6.31602 1.835524,-1.894929 7.522143,-5.195858 8.957873,-5.199805 0.328496,-8.78e-4 1.273579,-0.413942 2.100185,-0.917869 3.346454,-2.040105 3.108384,-3.237069 3.091114,15.541316 -0.0111,12.089197 -0.17506,17.501146 -0.58767,19.400341 -1.693335,7.794228 -8.238111,14.08727 -16.464174,15.8309 -4.217487,0.89395 -59.083871,0.83463 -63.21057,-0.0683 z M 40.346092,66.216779 c 0.244234,-0.879295 0.438059,-2.092586 0.430722,-2.696204 l -0.01334,-1.097489 -1.071683,1.31163 c -1.638931,2.005885 -2.191367,3.599271 -1.525892,4.401118 0.750318,0.904081 1.604996,0.151774 2.180192,-1.919055 z m 9.724883,-7.353797 c -2.928731,-3.063903 -5.324966,-5.746968 -5.324966,-5.962374 0,-0.215402 1.31833,-0.983135 2.929622,-1.706072 C 52.74811,48.918668 58.404395,44.483898 67.793269,35.421437 79.39379,24.224223 81.588328,22.576853 83.651725,23.517001 c 1.140304,0.519556 2.794592,2.922311 2.797208,4.062778 0.0022,0.865347 -4.200387,5.694151 -13.131108,15.088512 -8.54171,8.985157 -12.979093,14.330163 -15.182455,18.287879 -0.96579,1.734769 -1.977258,3.226897 -2.247705,3.315837 -0.270448,0.08894 -2.887958,-2.345118 -5.81669,-5.409025 z M 20.491511,19.292118 C 11.427607,19.191966 9.1873793,19.051236 9.1873793,18.581997 c 0,-0.863263 2.2183757,-3.755302 4.4490567,-5.800118 1.875967,-1.719659 6.262298,-4.1357338 7.508333,-4.1357338 0.328834,0 0.844837,-0.2469349 1.146673,-0.5487443 0.802687,-0.8026137 62.025927,-0.8026137 62.293429,0 0.100587,0.3018094 0.47498,0.5487443 0.831984,0.5487443 1.36219,0 5.727332,2.4432158 7.794584,4.3627108 1.990989,1.84868 4.653018,5.42958 4.653018,6.259127 0,0.319353 -49.264353,0.33472 -77.372946,0.02413 z"
     style="fill:#a5f0ee" />
  <path
     inkscape:connector-curvature="0"
     id="path3348"
     d="M 24.332721,103.18415 C 16.14388,101.47586 10.767619,97.546689 7.6034664,90.957789 5.7454245,87.088681 5.2364204,84.387718 5.2364204,78.397366 l 0,-4.758166 1.0469222,0.398041 c 0.5758072,0.218919 4.1475544,2.288286 7.9372164,4.598587 3.789661,2.310297 7.156349,4.200546 7.481527,4.200546 1.487564,0 5.134073,-6.047702 8.329124,-13.813778 2.135747,-5.19127 3.388121,-7.260905 5.662041,-9.356933 2.58114,-2.379214 4.594405,-3.01495 6.472377,-2.043813 2.118225,1.095377 7.450693,6.707306 8.872002,9.336963 1.038532,1.921452 1.193585,2.604617 0.941935,4.150118 -0.612065,3.758929 -4.351695,9.652807 -7.498086,11.817428 -2.043115,1.405597 -7.122585,3.108944 -11.368849,3.812425 -1.690132,0.280004 -3.665612,0.629669 -4.389954,0.777031 -1.236798,0.251623 -1.258409,0.289618 -0.354929,0.624071 0.971462,0.359617 4.499111,5.406172 4.516168,6.460705 0.0051,0.313407 0.690472,1.634801 1.523115,2.936436 0.832644,1.30163 1.923173,3.168843 2.423398,4.149373 l 0.909498,1.78276 -6.264607,-0.0509 c -3.445533,-0.028 -6.659703,-0.13335 -7.142598,-0.23409 z M 35.094513,75.620689 c 3.240571,-3.356217 4.644844,-5.340129 5.504451,-7.776519 0.724961,-2.054757 0.854174,-6.079577 0.195178,-6.079577 -0.720038,0 -4.099301,4.888859 -5.793396,8.381441 -2.013904,4.151905 -3.524998,8.300385 -3.023437,8.300385 0.213862,0 1.616603,-1.271576 3.117204,-2.82573 z m 34.788735,26.641231 c -1.145607,-3.208761 -1.394101,-4.696007 -1.673122,-10.013796 -0.25618,-4.882441 -0.19919,-5.835241 0.38391,-6.418346 0.376619,-0.376614 1.366321,-2.375 2.199341,-4.44086 0.83302,-2.06586 1.741069,-4.017528 2.017887,-4.337042 0.276817,-0.319514 1.137718,-1.595889 1.913111,-2.836389 2.644403,-4.230595 4.254814,-6.523328 5.576559,-7.939325 0.726379,-0.778176 1.320691,-1.57796 1.320691,-1.777295 0,-0.36265 1.869634,-2.475025 5.590203,-6.31602 1.835524,-1.894929 7.522143,-5.195858 8.957873,-5.199805 0.328496,-8.78e-4 1.273579,-0.413942 2.100185,-0.917869 3.346454,-2.040105 3.108384,-3.237069 3.091114,15.541316 -0.0111,12.089197 -0.17506,17.501146 -0.58767,19.400341 -1.693335,7.794228 -8.238111,14.08727 -16.464174,15.8309 -1.601201,0.3394 -5.397344,0.61961 -8.450961,0.62381 l -5.543933,0.008 -0.431014,-1.20724 z M 50.117114,58.575537 c -2.954107,-2.961218 -5.371105,-5.537603 -5.371105,-5.7253 0,-0.187697 1.31833,-0.932764 2.929622,-1.655701 C 52.74811,48.918668 58.404395,44.483898 67.793269,35.421437 79.39379,24.224223 81.588328,22.576853 83.651725,23.517001 c 1.126515,0.513273 2.794539,2.917738 2.797208,4.032186 0.0022,0.919942 -2.510632,3.827593 -12.307399,14.241114 -10.280544,10.927759 -14.028257,15.418906 -16.026788,19.20605 -0.860054,1.62977 -1.802862,2.963219 -2.095128,2.963219 -0.29227,0 -2.948394,-2.422816 -5.902504,-5.384033 z M 20.491511,19.292118 C 11.427607,19.191966 9.1873793,19.051236 9.1873793,18.581997 c 0,-0.863263 2.2183757,-3.755302 4.4490567,-5.800118 1.875967,-1.719659 6.262298,-4.1357338 7.508333,-4.1357338 0.328834,0 0.844837,-0.2469349 1.146673,-0.5487443 0.802687,-0.8026137 62.025927,-0.8026137 62.293429,0 0.100587,0.3018094 0.47498,0.5487443 0.831984,0.5487443 1.36219,0 5.727332,2.4432158 7.794584,4.3627108 1.990989,1.84868 4.653018,5.42958 4.653018,6.259127 0,0.319353 -49.264353,0.33472 -77.372946,0.02413 z"
     style="fill:#eaf0a8" />
  <path
     inkscape:connector-curvature="0"
     id="path3346"
     d="M 24.332721,103.18415 C 16.14388,101.47586 10.767619,97.546689 7.6034664,90.957789 5.7454245,87.088681 5.2364204,84.387718 5.2364204,78.397366 l 0,-4.758166 1.0469222,0.398041 c 0.5758072,0.218919 4.1475544,2.288286 7.9372164,4.598587 3.789661,2.310297 7.156349,4.200546 7.481527,4.200546 1.487564,0 5.134073,-6.047702 8.329124,-13.813778 2.135747,-5.19127 3.388121,-7.260905 5.662041,-9.356933 2.58114,-2.379214 4.594405,-3.01495 6.472377,-2.043813 2.118225,1.095377 7.450693,6.707306 8.872002,9.336963 1.038532,1.921452 1.193585,2.604617 0.941935,4.150118 -0.612065,3.758929 -4.351695,9.652807 -7.498086,11.817428 -2.043115,1.405597 -7.122585,3.108944 -11.368849,3.812425 -1.690132,0.280004 -3.665612,0.629669 -4.389954,0.777031 -1.236798,0.251623 -1.258409,0.289618 -0.354929,0.624071 0.971462,0.359617 4.499111,5.406172 4.516168,6.460705 0.0051,0.313407 0.690472,1.634801 1.523115,2.936436 0.832644,1.30163 1.923173,3.168843 2.423398,4.149373 l 0.909498,1.78276 -6.264607,-0.0509 c -3.445533,-0.028 -6.659703,-0.13335 -7.142598,-0.23409 z M 35.094513,75.620689 c 3.240571,-3.356217 4.644844,-5.340129 5.504451,-7.776519 0.724961,-2.054757 0.854174,-6.079577 0.195178,-6.079577 -0.720038,0 -4.099301,4.888859 -5.793396,8.381441 -2.013904,4.151905 -3.524998,8.300385 -3.023437,8.300385 0.213862,0 1.616603,-1.271576 3.117204,-2.82573 z m 55.542713,21.149035 c -0.145913,-1.264983 -0.308021,-3.781581 -0.360239,-5.592437 -0.08807,-3.053867 0.02814,-3.531064 1.603808,-6.584932 4.323842,-8.380304 7.34658,-12.730867 8.845305,-12.730867 0.68852,0 0.73755,0.614387 0.56935,7.133676 l -0.18406,7.133675 -1.767835,3.731462 c -1.835308,3.873871 -4.648707,7.248306 -7.100093,8.515967 L 90.90252,99.069696 90.637226,96.769724 Z M 50.117114,58.575537 c -2.954107,-2.961218 -5.371105,-5.537603 -5.371105,-5.7253 0,-0.187697 1.31833,-0.932764 2.929622,-1.655701 C 52.990554,48.809891 58.0035,44.805957 69.54512,33.726962 80.621497,23.094558 82.340331,22.028181 84.661063,24.348913 c 0.718056,0.718054 1.436362,1.826739 1.59624,2.463744 0.367615,1.464687 -0.170874,2.178729 -7.760245,10.290153 -15.556598,16.626704 -18.516819,20.066866 -20.996107,24.400203 -0.773023,1.351105 -1.542125,2.456557 -1.709114,2.456557 -0.16699,0 -2.720613,-2.422816 -5.674723,-5.384033 z M 20.491511,19.292118 C 11.427607,19.191966 9.1873793,19.051236 9.1873793,18.581997 c 0,-0.863263 2.2183757,-3.755302 4.4490567,-5.800118 1.875967,-1.719659 6.262298,-4.1357338 7.508333,-4.1357338 0.328834,0 0.844837,-0.2469349 1.146673,-0.5487443 0.802687,-0.8026137 62.025927,-0.8026137 62.293429,0 0.100587,0.3018094 0.47498,0.5487443 0.831984,0.5487443 1.36219,0 5.727332,2.4432158 7.794584,4.3627108 1.990989,1.84868 4.653018,5.42958 4.653018,6.259127 0,0.319353 -49.264353,0.33472 -77.372946,0.02413 z"
     style="fill:#f2fa76" />
  <path
     inkscape:connector-curvature="0"
     id="path3344"
     d="M 24.332721,103.18415 C 16.14388,101.47586 10.767619,97.546689 7.6034664,90.957789 5.7454245,87.088681 5.2364204,84.387718 5.2364204,78.397366 l 0,-4.758166 1.0469222,0.398041 c 0.5758072,0.218919 4.1475544,2.288286 7.9372164,4.598587 3.789661,2.310297 7.156349,4.200546 7.481527,4.200546 1.487564,0 5.134073,-6.047702 8.329124,-13.813778 2.135747,-5.19127 3.388121,-7.260905 5.662041,-9.356933 2.58114,-2.379214 4.594405,-3.01495 6.472377,-2.043813 2.118225,1.095377 7.450693,6.707306 8.872002,9.336963 1.038532,1.921452 1.193585,2.604617 0.941935,4.150118 -0.612065,3.758929 -4.351695,9.652807 -7.498086,11.817428 -2.043115,1.405597 -7.122585,3.108944 -11.368849,3.812425 -1.690132,0.280004 -3.665612,0.629669 -4.389954,0.777031 -1.236798,0.251623 -1.258409,0.289618 -0.354929,0.624071 0.971462,0.359617 4.499111,5.406172 4.516168,6.460705 0.0051,0.313407 0.690472,1.634801 1.523115,2.936436 0.832644,1.30163 1.923173,3.168843 2.423398,4.149373 l 0.909498,1.78276 -6.264607,-0.0509 c -3.445533,-0.028 -6.659703,-0.13335 -7.142598,-0.23409 z M 35.094513,75.620689 c 3.240571,-3.356217 4.644844,-5.340129 5.504451,-7.776519 0.724961,-2.054757 0.854174,-6.079577 0.195178,-6.079577 -0.720038,0 -4.099301,4.888859 -5.793396,8.381441 -2.013904,4.151905 -3.524998,8.300385 -3.023437,8.300385 0.213862,0 1.616603,-1.271576 3.117204,-2.82573 z M 50.117114,58.575537 c -2.954107,-2.961218 -5.371105,-5.537603 -5.371105,-5.7253 0,-0.187697 1.31833,-0.932764 2.929622,-1.655701 C 52.990554,48.809891 58.0035,44.805957 69.54512,33.726962 80.621497,23.094558 82.340331,22.028181 84.661063,24.348913 c 0.718056,0.718054 1.436362,1.826739 1.59624,2.463744 0.367615,1.464687 -0.170874,2.178729 -7.760245,10.290153 -15.556598,16.626704 -18.516819,20.066866 -20.996107,24.400203 -0.773023,1.351105 -1.542125,2.456557 -1.709114,2.456557 -0.16699,0 -2.720613,-2.422816 -5.674723,-5.384033 z M 20.491511,19.292118 C 11.427607,19.191966 9.1873793,19.051236 9.1873793,18.581997 c 0,-0.863263 2.2183757,-3.755302 4.4490567,-5.800118 1.875967,-1.719659 6.262298,-4.1357338 7.508333,-4.1357338 0.328834,0 0.844837,-0.2469349 1.146673,-0.5487443 0.802687,-0.8026137 62.025927,-0.8026137 62.293429,0 0.100587,0.3018094 0.47498,0.5487443 0.831984,0.5487443 1.36219,0 5.727332,2.4432158 7.794584,4.3627108 1.990989,1.84868 4.653018,5.42958 4.653018,6.259127 0,0.319353 -49.264353,0.33472 -77.372946,0.02413 z"
     style="fill:#f674f6" />
  <path
     inkscape:connector-curvature="0"
     id="path3342"
     d="M 24.332721,103.18415 C 16.14388,101.47586 10.767619,97.546689 7.6034664,90.957789 5.7454245,87.088681 5.2364204,84.387718 5.2364204,78.397366 l 0,-4.758166 1.0469222,0.398041 c 0.5758072,0.218919 4.1475544,2.288286 7.9372164,4.598587 3.789661,2.310297 7.156349,4.200546 7.481527,4.200546 1.487564,0 5.134073,-6.047702 8.329124,-13.813778 2.135747,-5.19127 3.388121,-7.260905 5.662041,-9.356933 2.58114,-2.379214 4.594405,-3.01495 6.472377,-2.043813 2.118225,1.095377 7.450693,6.707306 8.872002,9.336963 1.038532,1.921452 1.193585,2.604617 0.941935,4.150118 -0.612065,3.758929 -4.351695,9.652807 -7.498086,11.817428 -2.043115,1.405597 -7.122585,3.108944 -11.368849,3.812425 -1.690132,0.280004 -3.665612,0.629669 -4.389954,0.777031 -1.236798,0.251623 -1.258409,0.289618 -0.354929,0.624071 0.971462,0.359617 4.499111,5.406172 4.516168,6.460705 0.0051,0.313407 0.690472,1.634801 1.523115,2.936436 0.832644,1.30163 1.923173,3.168843 2.423398,4.149373 l 0.909498,1.78276 -6.264607,-0.0509 c -3.445533,-0.028 -6.659703,-0.13335 -7.142598,-0.23409 z M 35.094513,75.620689 c 3.240571,-3.356217 4.644844,-5.340129 5.504451,-7.776519 0.724961,-2.054757 0.854174,-6.079577 0.195178,-6.079577 -0.720038,0 -4.099301,4.888859 -5.793396,8.381441 -2.013904,4.151905 -3.524998,8.300385 -3.023437,8.300385 0.213862,0 1.616603,-1.271576 3.117204,-2.82573 z M 50.117114,58.575537 c -2.954107,-2.961218 -5.371105,-5.537603 -5.371105,-5.7253 0,-0.187697 1.31833,-0.932764 2.929622,-1.655701 5.039642,-2.261135 11.422767,-7.314577 22.971109,-18.185945 6.79906,-6.400494 10.223005,-8.997606 11.862148,-8.997606 1.372445,0 3.502692,2.132397 3.502692,3.506225 0,1.066135 -2.343498,3.979953 -8.636032,10.737722 -14.579241,15.657143 -17.458392,19.025002 -19.874597,23.248081 -0.773023,1.351105 -1.542125,2.456557 -1.709114,2.456557 -0.16699,0 -2.720613,-2.422816 -5.674723,-5.384033 z"
     style="fill:#69f4f2" />
  <path
     inkscape:connector-curvature="0"
     id="path3340"
     d="m 22.137744,86.474298 c -1.745969,-0.419961 -1.687091,-0.971387 0.334482,-3.13261 2.222743,-2.376295 4.643949,-6.888031 7.374482,-13.741804 2.259961,-5.672611 3.489213,-7.761312 5.846543,-9.934221 2.58114,-2.379214 4.594405,-3.01495 6.472377,-2.043813 2.118225,1.095377 7.450693,6.707306 8.872002,9.336963 1.454506,2.691077 1.352628,4.51887 -0.459953,8.251955 -3.052462,6.286674 -6.920378,9.117659 -14.630857,10.708534 -3.893002,0.803226 -11.505143,1.109166 -13.809076,0.554996 z M 38.66926,71.541429 c 0.705839,-1.025901 1.571668,-2.682472 1.924065,-3.68127 0.709218,-2.010143 0.869144,-6.095566 0.238613,-6.095566 -0.56616,0 -2.731952,2.819281 -4.552732,5.926438 -1.823905,3.112491 -4.711121,9.929603 -4.684094,11.059783 0.02165,0.905108 4.93946,-4.106723 7.074148,-7.209385 z M 50.117114,58.575537 c -2.954107,-2.961218 -5.371105,-5.537603 -5.371105,-5.7253 0,-0.187697 1.31833,-0.932764 2.929622,-1.655701 5.039642,-2.261135 11.422767,-7.314577 22.971109,-18.185945 6.79906,-6.400494 10.223005,-8.997606 11.862148,-8.997606 1.372445,0 3.502692,2.132397 3.502692,3.506225 0,1.066135 -2.343498,3.979953 -8.636032,10.737722 -14.579241,15.657143 -17.458392,19.025002 -19.874597,23.248081 -0.773023,1.351105 -1.542125,2.456557 -1.709114,2.456557 -0.16699,0 -2.720613,-2.422816 -5.674723,-5.384033 z"
     style="fill:#383839" />
</svg>
