<svg xmlns="http://www.w3.org/2000/svg" xmlns:xlink="http://www.w3.org/1999/xlink" viewBox="0 0 106.3 106.3"><defs><linearGradient xlink:href="#0" id="4" x1="34.35" y1="-72.17" x2="332.65" y2="598.46" gradientUnits="userSpaceOnUse" gradientTransform="matrix(.1134 0 0 .11536 10.841 27.362)"/><linearGradient xlink:href="#0" id="5" x1="27.984" y1="-79" x2="332.47" y2="605.53" gradientUnits="userSpaceOnUse" gradientTransform="matrix(.11639 0 0 .11907 9.599 26.996)"/><linearGradient id="3" x1="273.66" y1="74.22" x2="411.61" y2="425.86" gradientTransform="matrix(.09763 0 0 .19016 1.078 4.677)" gradientUnits="userSpaceOnUse"><stop stop-color="#b9e5ff" stop-opacity=".42"/><stop offset="1" stop-color="#fff"/></linearGradient><linearGradient id="1" x1="596.06" y1="231.01" x2="656.46" y2="279.76" gradientTransform="matrix(.10945 0 0 .16962 1.078 4.677)" gradientUnits="userSpaceOnUse"><stop stop-color="#fff2bc"/><stop offset="1" stop-color="#83560b"/></linearGradient><linearGradient id="0"><stop stop-color="#66b8ff"/><stop offset="1" stop-color="#00507a"/></linearGradient><linearGradient id="2" x1="779.72" y1="160.63" x2="908.45" y2="264.66" gradientTransform="matrix(.10112 0 0 .1836 1.078 4.677)" gradientUnits="userSpaceOnUse"><stop stop-color="#fff9db" stop-opacity=".732"/><stop offset="1" stop-color="#2c2c2c"/></linearGradient></defs><g fill-rule="evenodd"><ellipse cx="49.32" cy="57.639" rx="43.07" ry="44.05" fill="url(#5)" stroke="#000" stroke-width="1.807"/><ellipse cx="49.54" cy="57.05" rx="41.958" ry="42.683" fill="url(#4)"/><ellipse transform="matrix(.7652.64379-.73696.67593 0 0)" cx="75.63" cy="-37.95" rx="13.08" ry="7.651" fill="#060000" stroke="#000" stroke-width=".12"/><path d="m43.865 90.94c0 0-11.75-18.597-2.63-37.39 7.248-15.1 9.498-29.01 3.603-38.851-10.47 1.305-19.585 6.656-24.1 11.226-6.841 6.666-10.114 13.655-11.596 18.541 1.976 24.09 34.89 46.978 34.725 46.47" stroke-opacity=".393" fill="url(#3)" stroke="#f6f7f7" fill-opacity=".75" stroke-width=".167"/><path d="m46.872 91.86c-.312-.292 15.359-23.526 34.514-26.681.059-25.05 11.575-34.26 12.304-35.827-1.539-8.321-6.06-11.463-10.137-12.13-6.913-.881-5.616 2.221-6.465 3.046-4.678 10.564-14.475 25.477-15.858 28.14-3.891 5.391-12.13 32-15.426 43.39l1.068.053z" fill="url(#1)" stroke="#323232" stroke-width=".768"/><g fill="#665123"><ellipse transform="matrix(.83114.55607-.51486.85728 0 0)" cx="80.57" cy="9.325" rx="1.184" ry="3.397" stroke-width="1.251"/><path d="m60.746 55.53l-.307-.23c-.353-.265-12.188 30.802-14.01 36.37 1.815-5.869 12.495-33.689 14.322-36.14" stroke="#665123" stroke-width=".237"/></g><path d="m67.39 66c4.155-3.267 5.987-5.926 10.1-6.736-.711-10.215 7.14-22.55 13.522-34.08l-1.149-2.074c-2.64 3.998-18.329 32.727-22.474 42.893" fill="url(#2)" stroke-width="1.25"/></g></svg>